PathFileType	4	(X/Y/Z)	..\data\2014019\dynamic\2014019_C4_05.trc
DataRate	CameraRate	NumFrames	NumMarkers	Units	OrigDataRate	OrigDataStartFrame	OrigNumFrames
100.000000	100.000000	4	52	mm	100.000000	107	172
Frame#	Time	L_IAS			L_IPS			R_IPS			R_IAS			L_FTC			L_FLE			L_FME			L_FAX			L_TTC			L_FAL			L_TAM			L_FCC			L_FM1			L_FM2			L_FM5			R_FTC			R_FLE			R_FME			R_FAX			R_TTC			R_FAL			R_TAM			R_FCC			R_FM1			R_FM2			R_FM5			CV7			TV10			SXS			SJN			L_SIA			L_SRS			L_SAA			L_SAE			L_HLE			L_HME			L_UOA			L_RSP			L_UHE			L_HM2			L_HM5			R_SIA			R_SRS			R_SAA			R_SAE			R_HLE			R_HME			R_UOA			R_RSP			R_UHE			R_HM2			R_HM5			
		X1	Y1	Z1	X2	Y2	Z2	X3	Y3	Z3	X4	Y4	Z4	X5	Y5	Z5	X6	Y6	Z6	X7	Y7	Z7	X8	Y8	Z8	X9	Y9	Z9	X10	Y10	Z10	X11	Y11	Z11	X12	Y12	Z12	X13	Y13	Z13	X14	Y14	Z14	X15	Y15	Z15	X16	Y16	Z16	X17	Y17	Z17	X18	Y18	Z18	X19	Y19	Z19	X20	Y20	Z20	X21	Y21	Z21	X22	Y22	Z22	X23	Y23	Z23	X24	Y24	Z24	X25	Y25	Z25	X26	Y26	Z26	X27	Y27	Z27	X28	Y28	Z28	X29	Y29	Z29	X30	Y30	Z30	X31	Y31	Z31	X32	Y32	Z32	X33	Y33	Z33	X34	Y34	Z34	X35	Y35	Z35	X36	Y36	Z36	X37	Y37	Z37	X38	Y38	Z38	X39	Y39	Z39	X40	Y40	Z40	X41	Y41	Z41	X42	Y42	Z42	X43	Y43	Z43	X44	Y44	Z44	X45	Y45	Z45	X46	Y46	Z46	X47	Y47	Z47	X48	Y48	Z48	X49	Y49	Z49	X50	Y50	Z50	X51	Y51	Z51	X52	Y52	Z52	

108	1.07	111.3048324584961	916.3093872070315	144.8296813964844	-104.4816055297852	965.4805908203127	194.2480010986329	-116.1845321655274	968.972351074219	288.2334594726563	85.27779388427732	919.395935058594	378.6274719238282	41.64388656616211	847.6265258789065	52.5854072570801	193.4881439208985	466.496307373047	116.4840774536133	181.1915588378906	445.5466308593751	252.2537994384766	189.5962371826172	407.2849121093751	113.0445404052735	249.416976928711	415.1709899902345	160.0811309814454	306.5285949707032	71.56678009033205	154.1575469970704	332.20361328125	112.6161651611328	237.2164306640626	288.9575500488282	17.74037742614746	205.3770904541016	460.764129638672	97.00428009033206	230.0067901611329	467.4091186523439	110.302474975586	172.413787841797	442.851531982422	73.16431427001955	130.1609649658204	-41.91933441162116	853.9570312500002	449.2858886718751	-92.6497421264649	446.4313964843751	368.2011108398438	-90.43164062500004	447.263153076172	231.9678649902344	-135.3545379638673	396.0779724121095	365.9734497070313	-80.74343872070318	365.6710510253907	312.1447448730469	-275.4339904785157	81.21948242187501	303.240478515625	-245.8489379882813	91.04641723632814	215.8604431152344	-323.9229431152345	46.60438919067384	244.5681915283203	-128.0974121093751	24.44849014282227	229.830795288086	-117.7408599853516	35.6850929260254	286.6620178222657	-169.4577636718751	21.28925323486328	339.6145935058594	-67.60652923583989	1452.405029296875	269.1429748535157	-133.8881530761719	1238.185668945313	266.0626525878907	96.96331787109375	1139.232299804688	250.1756439208985	57.07154083251952	1366.725341796875	256.2905578613282	-147.4937286376954	1273.951782226563	196.3805541992188	-109.1312789916993	1402.080932617188	163.8977508544922	-82.03900146484378	1397.859497070313	98.96974945068361	-36.07058334350587	1411.448974609375	79.41713714599611	-158.4758758544922	1103.31640625	29.27037811279296	-158.9186248779297	1096.528442382813	98.30104827880861	-173.5018920898438	1080.873291015625	72.30097198486328	-132.4669036865235	853.165466308594	-20.75181961059572	-197.616683959961	879.6090087890627	-39.17060470581058	-143.9312591552735	762.6923217773439	-39.78408813476565	-237.5941467285157	800.0227661132815	-36.70419311523441	-134.8767242431641	1271.473754882813	351.5659484863282	-87.76800537109381	1401.037353515625	379.3352050781251	-35.59235382080085	1400.921630859375	435.8831176757814	2.711445569992013	1417.879638671875	432.8453979492189	48.00728225708003	1106.59912109375	547.9811401367189	4.058241844177187	1077.54150390625	487.3015441894532	19.94504547119135	1058.48974609375	527.0618896484376	255.2156219482422	962.3686523437502	490.8291015625002	218.5142059326172	933.5710449218752	544.7497558593751	331.6910095214844	903.1821289062502	495.8341064453127	252.556884765625	854.535827636719	534.5446777343751	
109	1.08	126.1081085205078	914.1890869140627	145.4263610839844	-90.04375457763676	964.0928955078127	192.5567321777344	-102.2980575561524	967.724548339844	286.5284729003907	98.34854888916014	917.5642700195315	379.2615356445313	56.94357681274415	845.9848632812502	52.34629821777346	207.3973541259766	464.6054687500001	117.502784729004	191.7621307373047	442.9183654785157	253.084457397461	204.0599975585938	405.6079711914064	113.8851470947266	262.8481750488282	414.0884704589845	162.2030181884766	325.8469543457032	71.29109191894533	156.2859039306641	348.8328552246094	112.6563720703125	240.0674133300782	307.6356201171876	17.25897407531739	206.7192382812501	477.7522583007813	98.81702423095706	236.4400329589845	485.8411254882814	111.9721298217774	179.126449584961	462.9793701171876	74.47767639160158	136.339324951172	-29.92066383361822	853.2888183593752	448.6422119140626	-83.64049530029303	446.0386352539064	368.2539062500001	-80.14970397949223	446.4245605468751	232.010726928711	-127.4543228149415	396.3907470703126	365.8963012695313	-73.07126617431646	364.6020202636719	312.6792907714844	-274.4580993652345	84.21221160888673	303.7825622558594	-243.9464874267579	93.70065307617189	216.514633178711	-323.3546752929689	50.82839584350587	244.5757598876953	-127.737892150879	24.71951293945313	230.2855377197266	-117.3600387573243	35.66094207763673	286.9812011718751	-169.4284820556641	21.15184593200684	339.7443237304688	-54.45831680297857	1450.578125	269.0734252929688	-120.3798599243165	1236.243408203125	265.2793273925782	110.7332000732422	1137.213012695313	250.2598419189454	70.6230010986328	1364.961059570313	256.5569152832032	-133.6967926025391	1271.866455078125	195.9438934326172	-95.61850738525393	1400.181640625	163.9092712402344	-68.44121551513675	1396.349731445313	99.1997756958008	-22.57852935791017	1410.083251953125	79.61128234863283	-147.7176208496094	1103.009765625	30.36795043945311	-147.1552276611328	1096.000244140625	99.36167144775392	-162.2921142578125	1080.514038085938	73.5325927734375	-124.4763717651367	853.0245361328127	-21.38778114318849	-189.984359741211	879.8780517578127	-38.02661132812503	-136.8348541259766	762.6752319335939	-40.64858245849612	-230.200912475586	800.2641601562502	-34.87693786621097	-121.9851608276368	1269.385131835938	350.8415527343751	-75.06159973144537	1399	379.0279846191407	-23.18874359130865	1398.788208007813	435.8940429687501	15.11219787597651	1415.798095703125	433.0795898437501	60.71315765380854	1104.719604492188	548.6235961914064	16.98972129821772	1075.287231445313	487.9163208007814	33.06318664550776	1056.329345703125	527.6379394531251	269.6114501953125	963.4291992187502	491.0033264160158	233.3958587646484	933.8565063476565	544.7886962890626	346.9994812011719	905.5615234375002	495.7223205566408	268.6909790039062	855.3674316406252	534.1793823242189	
110	1.09	141.0746307373047	912.3093872070315	145.9795532226563	-75.42200469970707	962.8839111328127	190.9653778076172	-88.1300430297852	966.553405761719	284.9231262207032	111.6939315795898	915.823669433594	379.8665771484376	72.48003387451173	844.6988525390627	52.06152343750002	221.6133117675782	463.0887145996095	118.4744033813477	202.8096313476563	440.6914367675782	253.762680053711	218.4512329101563	404.1979064941407	114.6682586669922	276.1789550781251	412.9087829589845	164.2798004150391	342.1660766601563	70.6669158935547	158.3320770263672	362.8465576171875	111.9791412353516	242.842254638672	322.8669738769532	16.72601127624512	207.929916381836	491.7933654785157	98.67067718505862	242.7851562500001	501.4260864257814	111.6059265136719	185.7602539062501	479.9570312500001	74.05932617187501	142.4625701904298	-17.55930137634283	852.6321411132815	447.964569091797	-74.04223632812506	445.6896362304689	368.4023742675782	-69.33619689941411	445.5180053710939	232.1870727539063	-119.021598815918	396.8246154785157	365.9475097656251	-64.90606689453131	363.5440673828126	313.3954162597657	-273.2567749023439	87.68251800537111	304.5096130371094	-241.8150634765626	96.77705383300784	217.3423614501953	-322.6067810058595	55.61348724365236	244.7730407714844	-127.3846511840821	24.92565727233887	230.7608032226563	-116.9381484985352	35.5734977722168	287.3008728027344	-169.3387451171876	20.89697647094727	339.8824768066407	-41.24685668945317	1448.919189453125	268.8515930175782	-106.7278137207032	1234.440185546875	264.4269714355469	124.6756744384766	1135.459228515625	250.2942047119141	84.2647247314453	1363.417358398438	256.7253723144532	-119.7777481079102	1269.933349609375	195.3490295410157	-81.96936035156253	1398.434692382813	163.7081604003907	-54.66545867919925	1394.937377929688	99.21717834472659	-8.888541221618663	1408.807983398438	79.63424682617189	-136.2947540283203	1102.620727539063	31.43753814697265	-134.7408294677735	1095.375610351563	100.3889541625977	-150.3860168457032	1080.086303710938	74.73560333251953	-115.8921966552735	852.803894042969	-21.97913742065431	-181.7256469726563	880.1180419921877	-36.78815460205081	-129.2790985107422	762.5982666015626	-41.49440383911135	-222.2263336181641	800.555114746094	-32.93840408325199	-109.0006790161134	1267.412109375	349.9202880859376	-62.33764648437506	1397.119873046875	378.5566711425782	-10.80196857452398	1396.807495117188	435.7634277343751	27.49209213256831	1413.88134765625	433.2232055664064	73.12438964843744	1102.858154296875	548.9928588867189	29.64169692993159	1073.153198242188	488.2164001464845	45.83578109741205	1054.262939453125	527.9031372070314	283.4880065917969	964.1673583984377	491.227996826172	247.6254577636719	933.8771972656252	544.8200073242189	361.6523132324219	907.4756469726565	495.7546997070314	284.0367126464844	855.8922119140627	533.8328247070314	
111	1.1	156.1849060058594	910.7459716796877	146.4497375488282	-60.6378211975098	961.8718261718752	189.521224975586	-73.69392395019536	965.4711914062502	283.4672241210938	125.3307800292969	914.1899414062502	380.3881225585938	88.21383666992189	843.8198242187502	51.71910095214847	236.0720520019532	461.9554443359376	119.3916473388672	214.3449249267578	438.9068908691407	254.297348022461	232.7483673095704	403.0520629882814	115.3874664306641	289.4238281250001	411.6641235351564	166.2755432128907	355.6581420898438	69.66941070556642	160.2388610839845	374.4631042480469	110.5959854125977	245.4760589599611	334.8500671386719	16.12811279296875	208.9767303466798	503.1456298828126	96.5395431518555	248.8555603027345	514.3779907226564	109.1793746948242	192.1192779541017	493.944549560547	71.87960815429689	148.3216094970704	-4.809157371521052	851.9641113281252	447.2477111816407	-63.75682449340826	445.3561401367189	368.6692504882813	-57.8581924438477	444.488739013672	232.5335235595704	-109.9559936523438	397.3719482421876	366.1516723632813	-56.13844299316411	362.4699401855469	314.3296813964844	-271.7384643554689	91.67280578613283	305.4242858886719	-239.3497467041016	100.271469116211	218.3705749511719	-321.5650329589845	61.03174209594728	245.1717224121094	-127.0707931518555	25.06750106811524	231.234130859375	-116.5099716186524	35.41043090820313	287.6029052734376	-169.2136383056641	20.53912544250489	340.0096740722657	-27.97589874267582	1447.45751953125	268.4796142578126	-92.94158935546879	1232.809204101563	263.5260314941407	138.7877349853516	1134.011596679688	250.2942199707032	97.97970581054688	1362.124267578125	256.7974548339844	-105.7484893798829	1268.185302734375	194.6069793701172	-68.19447326660159	1396.870971679688	163.2927703857422	-40.72183990478518	1393.640747070313	99.01651763916018	4.992856025695792	1407.637939453125	79.48209381103517	-124.1820526123047	1102.150024414063	32.4404067993164	-121.6817779541016	1094.664916992188	101.3458251953125	-137.7758178710938	1079.598510742188	75.86801910400391	-106.6823654174805	852.4895629882815	-22.49592018127443	-172.7868041992188	880.3250122070315	-35.49066543579104	-121.2383880615235	762.4458618164064	-42.26119232177737	-213.6423034667969	800.9117431640627	-30.93729972839359	-95.91208648681646	1265.586669921875	348.8171691894532	-49.59286117553717	1395.434814453125	377.9288330078126	1.577674746513314	1395.020751953125	435.4914855957032	39.86153793334957	1412.167358398438	433.2699584960939	85.23839569091791	1101.048095703125	549.0670776367189	42.01367950439448	1071.182861328125	488.1748657226564	58.25426483154292	1052.327392578125	527.8350830078126	296.8411560058594	964.5730590820315	491.4995422363283	261.1854858398438	933.6299438476565	544.8393554687501	375.638671875	908.8938598632815	495.9463806152345	298.56689453125	856.0969238281252	533.5181274414064	
